<svg id="visual" viewBox="0 0 960 540" width="960" height="540" xmlns="http://www.w3.org/2000/svg"
  xmlns:xlink="http://www.w3.org/1999/xlink" version="1.1">
  <rect x="0" y="0" width="960" height="540" fill="#dfe8ee"></rect>
  <defs>
    <linearGradient id="grad1_0" x1="43.8%" y1="100%" x2="100%" y2="0%">
      <stop offset="14.444444444444446%" stop-color="#dfe8ee" stop-opacity="1"></stop>
      <stop offset="85.55555555555554%" stop-color="#dfe8ee" stop-opacity="1"></stop>
    </linearGradient>
  </defs>
  <defs>
    <linearGradient id="grad2_0" x1="0%" y1="100%" x2="56.3%" y2="0%">
      <stop offset="14.444444444444446%" stop-color="#dfe8ee" stop-opacity="1"></stop>
      <stop offset="85.55555555555554%" stop-color="#dfe8ee" stop-opacity="1"></stop>
    </linearGradient>
  </defs>
  <g transform="translate(960, 540)">
    <path
      d="M-324 0C-326.9 -26 -329.8 -51.9 -315.9 -72.1C-301.9 -92.3 -271.2 -106.6 -251.4 -121.1C-231.6 -135.5 -222.8 -150.1 -217.3 -173.3C-211.9 -196.6 -209.9 -228.6 -193.3 -242.4C-176.7 -256.2 -145.4 -251.7 -121.5 -252.3C-97.5 -252.8 -80.9 -258.3 -61.9 -271C-42.8 -283.8 -21.4 -303.9 0 -324L0 0Z"
      fill="#eb93b6"></path>
  </g>
  <g transform="translate(0, 0)">
    <path
      d="M324 0C309 21.2 294.1 42.3 287.6 65.6C281.1 89 283.1 114.5 270.3 130.2C257.4 145.8 229.7 151.7 219.7 175.2C209.7 198.7 217.4 239.9 202 253.3C186.6 266.7 148 252.4 122.4 254.1C96.7 255.7 83.9 273.3 65.6 287.6C47.4 301.9 23.7 313 0 324L0 0Z"
      fill="#eb93b6"></path>
  </g>
</svg>
