<svg xmlns="http://www.w3.org/2000/svg" version="1.1" xmlns:xlink="http://www.w3.org/1999/xlink" xmlns:svgjs="http://svgjs.com/svgjs" width="400" height="400"><svg xmlns="http://www.w3.org/2000/svg" xml:space="preserve" fill-rule="evenodd" stroke-linejoin="round" stroke-miterlimit="2" clip-rule="evenodd" viewBox="0 0 400 400"><path fill="none" d="M0 0h400v400H0z"></path><path fill-rule="nonzero" d="M311.2 37.7a43.8 43.8 0 0 1 43.3 43.7 43.7 43.7 0 0 1-43.3 43.3c-24 0-43.7-19.7-43.7-43.3a44 44 0 0 1 43.7-43.7Zm0 19.8a24 24 0 0 0-24 24c0 13 11 23.5 24 23.5s23.5-10.5 23.5-23.6c0-13.5-10.5-24-23.5-24Z"></path><path fill-rule="nonzero" d="m340.3 120.2 10.3-.2 2.4 2.4v40.7l-2.4 2.3-47.4-1H229v84.9l1.2 53.4c.4 17.6-1.9 30.2-8.9 39a43.7 43.7 0 0 1-23.2 14 200 200 0 0 1-48 6 3 3 0 0 1-1.4-.5c-.3-.1-.6-.4-.9-.9-.5-.7-1-1.7-1.6-3L123 312.9c18-.1 29.5-.6 36.7-2.4 7.5-2 11.5-5.2 13.8-10 2-4.3 2.6-10.3 2.6-18.7V164.4h-70l-52.3 1-2.5-2.3v-40.7L54 120l50.2 1.1h72V52.9l2.5-2.4H226l3 2V121h53.8a48.9 48.9 0 0 0 57.4-.9ZM89 205.7l3.2-1.1 41.2 20 1.1 3.3c-14.8 27.7-49.3 72-56.5 81l-3.1.6-38.3-24-.5-3.7c22-23.6 40-49.6 53-76.1Zm279.7 69.5-.5 3.2-39.4 29.5-3.4-.6a366.1 366.1 0 0 0-61-76l.2-3.8L300 202l3 .1a347.7 347.7 0 0 1 65.7 73Zm-101 35.5a22 22 0 0 1 21.5 22.3c0 12-9.8 22-21.5 22a22 22 0 0 1-21.7-22 22 22 0 0 1 21.7-22.3Z"></path></svg><style>@media (prefers-color-scheme: light) { :root { filter: none; } }
@media (prefers-color-scheme: dark) { :root { filter: invert(100%); } }
</style></svg>