<svg xmlns="http://www.w3.org/2000/svg" viewBox="0 0 32 32"><svg xmlns="http://www.w3.org/2000/svg" xml:space="preserve" fill-rule="evenodd" stroke-linejoin="round" stroke-miterlimit="2" clip-rule="evenodd" viewBox="0 0 32 32"><path fill="none" d="M0 0h32v32H0z"/><path fill-rule="nonzero" d="M24.9 3c1.9 0 3.5 1.6 3.5 3.5S26.8 10 24.9 10c-2 0-3.5-1.6-3.5-3.5S23 3 24.9 3Zm0 1.6c-1 0-2 .8-2 2a2 2 0 0 0 2 1.8c1 0 1.9-.8 1.9-1.9 0-1-.9-1.9-2-1.9Z"/><path fill-rule="nonzero" d="M27.2 9.6h.8l.2.2V13l-.2.2h-9.7v6.7l.1 4.3c0 1.4-.1 2.4-.7 3.1-.4.6-1 1-1.8 1.2a16 16 0 0 1-4 .4l-.2-.3L9.9 25c1.4 0 2.3 0 2.9-.2.6-.1.9-.4 1-.8.3-.3.3-.8.3-1.5v-9.4H8.5l-4.2.1-.2-.2V9.8l.2-.2h9.8V4.3l.2-.2H18l.2.2v5.5h4.3a4 4 0 0 0 4.6 0Zm-20 6.9.2-.1 3.3 1.6v.2a46.2 46.2 0 0 1-4.5 6.5H6l-3-1.9-.1-.3c1.7-1.8 3.2-4 4.2-6ZM29.4 22v.3l-3.2 2.3H26a29.3 29.3 0 0 0-4.9-6.1v-.3l2.9-2h.2c2.2 1.8 4 3.9 5.3 5.8Zm-8 2.9c1 0 1.7.8 1.7 1.7 0 1-.7 1.8-1.7 1.8s-1.7-.8-1.7-1.8.8-1.7 1.7-1.7Z"/></svg><style>@media (prefers-color-scheme:light){:root{filter:none}}@media (prefers-color-scheme:dark){:root{filter:invert(100%)}}</style></svg>