<svg fill="#f4f4f4" width="100%" height="100%" viewBox="0 0 5334 2667" version="1.1" xmlns="http://www.w3.org/2000/svg"
  xmlns:xlink="http://www.w3.org/1999/xlink" xml:space="preserve" xmlns:serif="http://www.serif.com/"
  style="fill-rule:evenodd;clip-rule:evenodd;stroke-linejoin:round;stroke-miterlimit:2;">
  <rect id="アートボード1" x="0" y="0" width="5333.33" height="2666.67" style="fill:none;" />
  <g id="アートボード11" serif:id="アートボード1">
    <g>
      <path
        d="M1835.54,1221.5c5.034,3.356 7.272,3.915 15.103,3.915c54.257,-25.73 97.887,-76.632 124.177,-130.33c14.543,9.509 31.324,20.137 48.664,33.561l5.594,-2.237l39.155,-67.682l-1.119,-6.153c-21.256,-15.103 -44.189,-29.087 -67.123,-40.833c3.916,-27.409 3.916,-56.495 2.797,-89.497l-2.797,-5.035l-74.954,-10.627l-3.356,3.915c1.678,25.731 1.119,47.545 -0.559,67.123c-35.24,-12.306 -72.157,-20.696 -105.719,-24.612c23.493,-57.614 42.511,-101.803 57.614,-145.433c2.238,-7.271 3.916,-13.984 3.916,-20.136c-0,-24.612 -17.9,-41.952 -49.224,-41.952c-6.153,-0 -12.306,0.559 -19.018,1.678c-34.121,5.593 -84.463,13.984 -145.992,25.171l-2.797,5.034l15.662,69.92l5.034,3.915c35.24,-6.712 66.004,-12.865 91.175,-17.899c-15.102,45.308 -24.052,71.598 -41.392,115.787c-110.753,13.984 -163.892,68.241 -163.892,149.907c0,43.63 28.528,87.819 79.989,87.819c41.392,0 67.122,-16.221 86.7,-45.867c14.543,-21.815 28.527,-55.936 53.698,-116.905c41.393,3.915 78.31,14.543 115.228,31.883c-19.018,45.308 -58.173,96.769 -129.212,120.821l62.648,44.749Zm-136.483,-196.335c-13.984,34.121 -21.255,49.783 -29.646,66.564c-6.712,12.306 -13.424,17.34 -20.696,17.34c-6.712,-0 -10.068,-5.594 -10.068,-17.34c-0,-36.358 31.883,-63.767 60.41,-66.564Z"
        style="fill-rule:nonzero;" />
      <path
        d="M2335.61,734.299c-71.597,140.958 -142.076,281.356 -210.877,435.739l1.678,6.153l74.954,27.408l5.593,-2.237c24.053,-60.411 45.867,-109.075 68.242,-148.789c18.459,-33.002 40.273,-57.614 68.241,-57.614c18.459,0 24.612,7.272 24.612,36.358c0,29.646 -2.797,66.004 -2.797,90.616c0,55.376 32.443,85.022 96.21,85.022c64.326,0 123.618,-40.833 170.044,-128.092c5.034,-10.069 4.475,-12.866 -1.119,-20.697l-49.782,-66.563c-40.833,87.26 -80.548,126.415 -115.228,126.415c-13.984,-0 -16.221,-10.628 -15.662,-26.85c0.56,-16.221 1.678,-49.223 1.119,-83.903c-0.559,-45.308 -30.205,-79.429 -85.022,-79.429c-15.662,0 -27.409,3.356 -43.63,12.306c29.646,-54.817 59.292,-104.6 95.09,-170.044l-1.678,-6.153l-74.394,-31.324l-5.594,1.678Z"
        style="fill-rule:nonzero;" />
      <path
        d="M2937.48,730.383l-74.953,-12.865l-5.035,3.356c-5.034,30.765 -12.305,61.529 -21.255,92.853c-38.036,3.916 -77.751,6.713 -120.262,7.831l-3.915,3.916l1.678,68.801l4.474,3.356c30.765,-0.559 60.411,-2.238 89.498,-5.034c-27.968,67.682 -66.005,132.567 -112.99,189.062l-0,5.035l66.004,42.511l5.593,-1.119c55.936,-78.869 98.447,-152.704 132.008,-246.117c24.612,-3.356 49.224,-8.39 73.276,-13.425l-13.984,31.884l2.797,3.915c26.849,1.678 54.258,3.916 76.073,7.831c-46.427,13.984 -74.954,39.715 -76.073,69.92c-1.119,21.815 3.916,39.714 12.306,68.241c-11.747,-1.678 -16.781,-2.796 -36.358,-2.796c-59.851,-0 -104.6,36.917 -104.6,89.497c-0,58.173 44.749,87.259 117.465,87.259c63.207,0 112.431,-29.646 114.109,-74.953c23.493,15.662 41.392,31.324 65.445,53.138l5.034,-0.559l46.986,-60.41l-0,-5.594c-31.324,-25.73 -75.513,-51.461 -121.94,-71.598c-16.221,-40.273 -24.612,-66.004 -24.612,-83.344c0,-25.171 30.765,-39.155 66.564,-39.155c16.221,0 27.408,1.119 45.308,9.509l4.474,-2.237l22.934,-62.089l-1.678,-5.593c-50.901,-25.731 -110.193,-38.596 -172.841,-43.63l-10.628,-49.224l-5.034,-2.237c-19.578,5.034 -39.155,9.509 -58.733,13.424c5.034,-20.136 11.187,-41.951 16.222,-64.326l-3.357,-5.034Zm48.664,392.109c0.56,22.375 -17.899,33.562 -49.782,33.562c-20.137,-0 -32.443,-8.95 -32.443,-22.374c0,-9.51 11.187,-21.256 30.205,-21.256c25.171,-0 39.155,2.797 52.02,10.068Z"
        style="fill-rule:nonzero;" />
      <path
        d="M3540.67,1199.26c6.153,6.153 10.069,6.153 17.9,5.593c118.583,-27.968 190.181,-105.159 190.181,-206.962c0,-124.177 -81.666,-226.54 -234.37,-226.54c-153.824,0 -255.067,109.634 -255.067,244.999c-0,45.308 11.187,76.072 27.408,101.243c21.256,33.562 45.308,49.783 78.87,49.783c43.629,0 74.953,-16.221 105.159,-60.41c38.595,-56.495 74.954,-154.942 86.141,-260.661c57.054,11.747 104.04,65.445 104.04,150.467c0,67.123 -54.258,124.737 -174.519,144.874l54.257,57.614Zm-72.157,-355.192c-8.39,68.241 -24.052,127.533 -55.376,190.181c-15.103,30.206 -31.324,43.071 -44.189,43.071c-8.95,-0 -16.781,-7.272 -22.934,-18.459c-6.153,-10.628 -9.509,-24.052 -9.509,-42.511c-0,-86.141 50.342,-158.298 132.008,-172.282Z"
        style="fill-rule:nonzero;" />
      <path
        d="M1368.43,1603.21l-56.495,48.105l0,5.594c50.902,37.477 107.956,96.768 159.977,163.891l5.034,0l63.207,-54.817l1.119,-5.593c-13.984,-16.222 -27.968,-31.884 -42.511,-46.427c68.801,-58.732 119.702,-106.837 167.807,-158.298c5.034,-5.034 6.712,-8.95 6.712,-12.865c0,-3.916 -1.678,-7.831 -5.594,-12.865l-37.476,-51.461l-59.852,2.797l-266.813,-0l-79.988,-1.679l-4.475,3.916l0,73.835l3.916,4.475l82.225,-1.678l233.252,-0c-20.696,23.493 -62.648,67.123 -97.887,97.887c-20.697,-18.458 -43.63,-38.036 -66.005,-54.817l-6.153,0Z"
        style="fill-rule:nonzero;" />
      <path
        d="M2093.92,1454.21c22.375,18.662 38.037,36.775 55.377,59.279l5.593,-0l30.765,-21.406l0.559,-5.489c-16.78,-21.955 -36.358,-41.166 -57.054,-58.181l-5.594,0.549l-29.086,20.309l-0.56,4.939Zm52.58,-34.579c22.374,18.662 37.477,34.579 54.817,57.083l5.594,0l29.086,-20.857l0.56,-5.489c-16.781,-21.955 -34.681,-39.519 -55.377,-56.534l-5.593,0.549l-28.528,20.309l-0.559,4.939Zm-309.884,81.257c39.715,17.564 67.123,32.933 106.278,62.572l6.153,-1.098l46.427,-62.571l-1.119,-6.038c-35.799,-25.248 -69.92,-43.91 -106.837,-58.729l-6.713,1.097l-45.307,59.279l1.118,5.488Zm-57.054,133.926c42.511,22.503 78.31,34.03 123.058,41.714l5.035,-2.744l22.933,-73.001l-2.797,-4.391c-41.951,-8.233 -80.547,-19.759 -114.668,-36.774l-5.034,2.195l-30.205,68.061l1.678,4.94Zm430.145,-129.535c-107.396,126.79 -246.117,211.317 -399.381,260.167l-1.678,6.037l47.546,74.098l6.153,1.098c141.517,-51.594 283.594,-137.767 368.057,-233.271c4.474,-4.94 6.153,-7.685 6.153,-11.527c-0,-2.195 -0.56,-4.94 -1.679,-8.782l-25.171,-87.82Z"
        style="fill-rule:nonzero;" />
      <path
        d="M3046.85,1788.36l74.953,-1.679l304.85,0l76.632,1.679l3.915,-4.475l0,-73.835l-5.034,-3.357l-77.75,1.678l-104.6,0l-0,-141.517l61.529,0l69.36,1.678l3.916,-4.475l-0,-73.275l-5.034,-3.357l-71.039,1.679l-198.571,-0l-82.785,-1.679l-5.034,3.357l-0,73.275l3.915,4.475l83.344,-1.678l48.105,0l-0,141.517l-106.837,0l-72.717,-1.678l-5.034,3.357l0,73.835l3.916,4.475Z"
        style="fill-rule:nonzero;" />
      <path
        d="M3606.2,1755.92l25.171,78.31l5.034,2.237c120.821,-19.018 223.183,-38.036 324.427,-60.41c8.95,17.899 17.899,35.798 26.29,54.257l6.153,1.678l72.716,-41.951l1.119,-6.153c-34.68,-68.801 -70.479,-127.534 -120.821,-187.385l-5.035,0l-61.529,37.477l-1.678,5.594c15.662,21.255 30.205,43.07 43.63,66.004c-49.783,10.068 -101.803,19.018 -152.145,25.73c33.002,-91.175 63.207,-181.791 96.769,-295.34l-2.797,-3.916l-83.344,-16.781l-5.035,1.678c-31.883,116.347 -62.648,219.828 -98.446,326.665c-21.815,2.797 -44.19,5.034 -67.683,7.831l-2.796,4.475Z"
        style="fill-rule:nonzero;" />
      <path
        d="M4157.2,1749.03c36.704,0 67.36,30.739 67.36,68.111c-0,36.681 -30.679,67.36 -67.36,67.36c-37.372,-0 -68.111,-30.656 -68.111,-67.36c-0,-37.394 30.717,-68.111 68.111,-68.111Zm-0.05,30.759c-20.273,-0 -37.302,16.218 -37.302,37.302c-0,20.316 16.986,36.651 37.302,36.651c20.362,0 36.651,-16.289 36.651,-36.651c-0,-21.129 -16.335,-37.302 -36.651,-37.302Z"
        style="fill-rule:nonzero;" />
      <g>
        <path
          d="M2829.48,1326.09c42.057,0 77.183,35.222 77.183,78.043c-0,42.03 -35.152,77.183 -77.183,77.183c-42.821,-0 -78.043,-35.126 -78.043,-77.183c0,-42.847 35.196,-78.043 78.043,-78.043Zm-0.057,35.244c-23.229,0 -42.741,18.584 -42.741,42.742c-0,23.279 19.462,41.996 42.741,41.996c23.331,-0 41.996,-18.665 41.996,-41.996c-0,-24.21 -18.717,-42.742 -41.996,-42.742Z"
          style="fill-rule:nonzero;" />
        <path
          d="M2881.34,1473.35l18.369,-0.414l4.368,4.27l0,72.56l-4.369,4.271c-17.887,-0.41 -84.585,-1.937 -84.585,-1.937l-132.216,-0l0,151.54c0.003,0.109 2.15,95.317 2.15,95.317c0.787,31.475 -3.295,53.949 -15.807,69.764c-9.132,11.544 -22.706,19.271 -41.408,24.74c-20.35,5.951 -46.434,9.116 -79.295,10.791c-2.515,0.001 -4.556,-0.02 -6.282,-0.145c-1.153,-0.083 -1.909,-0.248 -2.598,-0.645c-0.595,-0.343 -1.012,-0.813 -1.531,-1.62c-0.904,-1.407 -1.849,-3.144 -2.978,-5.275c0,-0 -41.308,-79.579 -41.308,-79.579c32.114,-0.174 52.538,-1.038 65.52,-4.31c13.329,-3.36 20.395,-9.246 24.518,-17.809c3.693,-7.668 4.634,-18.346 4.634,-33.362c-0,-0 -0,-209.407 -0,-209.407l-125.05,-0c0,-0 -74.241,1.557 -93.191,1.955l-4.361,-4.271l0,-72.598l4.366,-4.27c18.515,0.408 89.602,1.976 89.602,1.976l128.634,0c-0,0 -0,-99.681 -0,-121.702l4.271,-4.271l84.726,-0l5.351,3.433c0.006,20.186 0.037,122.54 0.037,122.54l96.119,0c14.29,10.09 31.699,16.072 50.414,16.072c19.312,0 37.335,-6.593 51.9,-17.614Zm-448.391,152.446l5.717,-1.978c13.677,6.676 59.773,29.177 73.592,35.922l1.913,5.813c-26.394,49.372 -88,128.316 -100.851,144.607l-5.617,0.966c-12.082,-7.577 -54.514,-34.187 -68.35,-42.864l-0.85,-6.535c39.251,-42.139 71.408,-88.655 94.446,-135.931Zm499.226,124.061l-1.056,5.673c-12.234,9.202 -56.89,42.79 -70.164,52.774l-6.2,-1.168c-34.219,-55.236 -70.696,-100.308 -108.878,-135.75l0.397,-6.606c13.069,-9.415 52.401,-37.749 63.136,-45.483l5.289,0.234c47.552,41.127 90.031,86.728 117.476,130.326Z"
          style="fill-rule:nonzero;" />
      </g>
    </g>
    <g>
      <path d="M423.663,756.22l-159.602,0l0,214.687l-131.354,-0l0,-346.041l290.956,0l0,131.354Z"
        style="fill-rule:nonzero;" />
      <path d="M5256.72,2073.82l-290.956,0l-0,-131.354l159.602,0l-0,-214.686l131.354,0l-0,346.04Z"
        style="fill-rule:nonzero;" />
    </g>
  </g>
</svg>
