<svg xmlns="http://www.w3.org/2000/svg" xml:space="preserve" fill="#f4f4f4" fill-rule="evenodd" stroke-linejoin="round" stroke-miterlimit="2" clip-rule="evenodd" viewBox="0 0 5334 2667"><path fill="none" d="M0 0h5333.3v2666.7H0z"/><path fill-rule="nonzero" d="M1835.5 1221.5c5 3.4 7.3 4 15.1 4 54.3-25.8 98-76.7 124.2-130.4 14.6 9.5 31.3 20.1 48.7 33.6l5.6-2.3 39.1-67.7-1-6.1a550.9 550.9 0 0 0-67.2-40.9c4-27.4 4-56.5 2.8-89.5l-2.8-5-75-10.6-3.3 3.9a439.4 439.4 0 0 1-.6 67.1 505.1 505.1 0 0 0-105.7-24.6c23.5-57.6 42.5-101.8 57.6-145.4 2.3-7.3 4-14 4-20.2 0-24.6-18-42-49.3-42-6.1 0-12.3.6-19 1.8a8376.7 8376.7 0 0 0-146 25.1l-2.8 5 15.7 70 5 4c35.2-6.8 66-13 91.2-18-15.1 45.3-24 71.6-41.4 115.8-110.8 14-164 68.2-164 149.9 0 43.6 28.6 87.8 80 87.8 41.5 0 67.2-16.2 86.8-45.9 14.5-21.8 28.5-55.9 53.7-116.9 41.4 4 78.3 14.6 115.2 32a212 212 0 0 1-129.2 120.7l62.6 44.8Zm-136.4-196.3a879.5 879.5 0 0 1-29.7 66.5c-6.7 12.3-13.4 17.4-20.7 17.4-6.7 0-10-5.6-10-17.4 0-36.3 31.8-63.7 60.3-66.5Zm636.5-290.9c-71.6 141-142 281.4-210.9 435.7l1.7 6.2 75 27.4 5.6-2.2c24-60.4 45.8-109.1 68.2-148.8 18.5-33 40.3-57.6 68.2-57.6 18.5 0 24.6 7.2 24.6 36.3 0 29.7-2.8 66-2.8 90.6 0 55.4 32.5 85 96.3 85 64.3 0 123.6-40.8 170-128 5-10.1 4.5-12.9-1.1-20.7l-49.8-66.6c-40.8 87.3-80.5 126.4-115.2 126.4-14 0-16.2-10.6-15.7-26.8a1587 1587 0 0 0 1.1-84c-.5-45.2-30.2-79.4-85-79.4a82.3 82.3 0 0 0-43.6 12.3c29.6-54.8 59.3-104.6 95-170l-1.6-6.2-74.4-31.3-5.6 1.7Zm601.9-4-75-12.8-5 3.4a819 819 0 0 1-21.3 92.8 1569.9 1569.9 0 0 1-120.2 7.9l-4 3.9 1.7 68.8 4.5 3.3c30.8-.5 60.4-2.2 89.5-5a737 737 0 0 1-113 189v5l66 42.6 5.6-1.1c56-78.9 98.5-152.7 132-246.1a1051 1051 0 0 0 73.3-13.5l-14 32 2.8 3.8c26.9 1.7 54.3 4 76 7.9-46.3 14-74.9 39.7-76 69.9-1.1 21.8 4 39.7 12.3 68.2-11.7-1.6-16.8-2.8-36.3-2.8-59.9 0-104.6 37-104.6 89.5 0 58.2 44.7 87.3 117.4 87.3 63.2 0 112.5-29.6 114.1-75a535.1 535.1 0 0 1 65.5 53.2l5-.6 47-60.4v-5.6a535.5 535.5 0 0 0-122-71.6c-16.2-40.2-24.6-66-24.6-83.3 0-25.2 30.8-39.2 66.6-39.2a92 92 0 0 1 45.3 9.5l4.5-2.2 23-62.1-1.8-5.6c-50.9-25.7-110.2-38.6-172.8-43.6l-10.6-49.2-5-2.3c-19.6 5-39.2 9.5-58.8 13.4 5-20 11.2-42 16.2-64.3l-3.3-5Zm48.6 392.2c.6 22.4-17.9 33.6-49.7 33.6-20.2 0-32.5-9-32.5-22.4 0-9.5 11.2-21.3 30.2-21.3 25.2 0 39.2 2.8 52 10Zm554.6 76.8c6.1 6.1 10 6.1 17.9 5.6 118.6-28 190.2-105.2 190.2-207 0-124.2-81.7-226.6-234.4-226.6-153.8 0-255 109.7-255 245 0 45.3 11.1 76.1 27.3 101.3 21.3 33.6 45.3 49.8 78.9 49.8 43.6 0 75-16.3 105.1-60.4 38.6-56.5 75-155 86.2-260.7 57 11.7 104 65.4 104 150.5 0 67-54.2 124.7-174.5 144.8l54.3 57.7ZM3468.5 844c-8.4 68.2-24 127.5-55.4 190.1-15 30.2-31.3 43.1-44.2 43.1-8.9 0-16.7-7.3-22.9-18.4a82.5 82.5 0 0 1-9.5-42.6c0-86 50.4-158.3 132-172.2Zm-2100 759.1-56.6 48.1v5.6c51 37.5 108 96.8 160 163.9h5l63.3-54.8 1-5.6a869 869 0 0 0-42.4-46.4 1981 1981 0 0 0 167.8-158.3c5-5 6.7-9 6.7-12.9s-1.7-7.8-5.6-12.9l-37.5-51.4-59.8 2.8h-266.8l-80-1.7-4.5 4v73.7l3.9 4.5 82.2-1.7h233.3a1233.6 1233.6 0 0 1-98 98 974.6 974.6 0 0 0-66-54.9h-6Zm725.4-149c22.4 18.7 38 36.8 55.4 59.3h5.6l30.8-21.4.5-5.5a355.2 355.2 0 0 0-57-58.2l-5.6.6-29.1 20.3-.6 5Zm52.6-34.6a333.2 333.2 0 0 1 54.8 57.1h5.6l29.1-20.8.6-5.5a335.1 335.1 0 0 0-55.4-56.6l-5.6.6-28.5 20.3-.6 5Zm-309.9 81.3c39.7 17.6 67.1 33 106.3 62.6l6.1-1.1 46.5-62.6-1.1-6a514.2 514.2 0 0 0-106.9-58.8l-6.7 1.1-45.3 59.3 1.1 5.5Zm-57 134c42.5 22.4 78.3 34 123 41.6l5-2.7 23-73-2.8-4.4c-42-8.2-80.6-19.8-114.7-36.8l-5 2.2-30.2 68 1.7 5Zm430.1-129.6c-107.4 126.8-246.1 211.3-399.4 260.2l-1.7 6 47.6 74 6.1 1.2c141.6-51.6 283.6-137.8 368.1-233.3 4.5-5 6.2-7.7 6.2-11.5 0-2.2-.6-5-1.7-8.8l-25.2-87.8Zm837.2 283 74.9-1.6h304.8l76.7 1.7 3.9-4.5V1710l-5-3.3-77.8 1.7h-104.6v-141.5h61.5l69.4 1.6 4-4.4v-73.3l-5.1-3.4-71 1.7H3180l-82.8-1.7-5 3.4v73.3l3.9 4.4 83.3-1.6h48.1v141.5h-106.8l-72.7-1.7-5 3.4v73.8l3.8 4.5Zm559.3-32.4 25.2 78.3 5 2.3a5229 5229 0 0 0 324.4-60.4c9 17.9 18 35.8 26.3 54.2l6.2 1.7 72.7-42 1.1-6.1c-34.7-68.8-70.5-127.6-120.8-187.4h-5l-61.6 37.5-1.7 5.6a747.9 747.9 0 0 1 43.7 66 2333.4 2333.4 0 0 1-152.2 25.7c33-91.2 63.2-181.8 96.8-295.3l-2.8-4-83.3-16.7-5 1.7a5977 5977 0 0 1-98.5 326.6c-21.8 2.8-44.2 5-67.7 7.9l-2.8 4.4Zm551-6.9a68.2 68.2 0 0 1 67.4 68.1 68 68 0 0 1-67.4 67.4 68.2 68.2 0 0 1-68.1-67.4 68.4 68.4 0 0 1 68.1-68Zm0 30.8a37.2 37.2 0 0 0-37.4 37.3 37 37 0 0 0 37.3 36.6 36.5 36.5 0 0 0 36.7-36.6 36.6 36.6 0 0 0-36.7-37.3ZM2829.4 1326c42 0 77.2 35.2 77.2 78a78 78 0 0 1-77.2 77.2c-42.8 0-78-35.1-78-77.2 0-42.8 35.1-78 78-78Zm0 35.2a42.6 42.6 0 0 0-42.8 42.8c0 23.3 19.4 42 42.7 42 23.3 0 42-18.7 42-42a42 42 0 0 0-42-42.8Z"/><path fill-rule="nonzero" d="m2881.3 1473.3 18.4-.4 4.4 4.3v72.6l-4.4 4.2-84.6-1.9H2683v151.5l2.2 95.4c.7 31.4-3.3 54-15.8 69.7-9.2 11.6-22.8 19.3-41.5 24.8a357.5 357.5 0 0 1-85.5 10.6 5.8 5.8 0 0 1-2.6-.6 4.5 4.5 0 0 1-1.6-1.7l-3-5.2-41.3-79.6c32.2-.2 52.6-1 65.6-4.3 13.3-3.4 20.4-9.3 24.5-17.8 3.7-7.7 4.6-18.4 4.6-33.4v-209.4h-125l-93.2 2-4.4-4.3v-72.6l4.4-4.3 89.6 2h128.6v-121.7l4.3-4.3h84.7l5.4 3.4V1475h96.1a87.2 87.2 0 0 0 50.4 16 86 86 0 0 0 52-17.6ZM2433 1625.8l5.8-2 73.6 36 1.9 5.8c-26.4 49.3-88 128.3-100.9 144.6l-5.6 1-68.3-43-.9-6.5a565.1 565.1 0 0 0 94.5-135.9Zm499.3 124-1 5.7-70.2 52.8-6.2-1.2a653 653 0 0 0-109-135.7l.5-6.6 63.1-45.5 5.3.2c47.6 41.2 90 86.8 117.5 130.4ZM423.7 756.2H264V971H132.7V625h291v131.3Zm4833 1317.6h-291v-131.3h159.7v-214.7h131.3v346Z"/></svg>